# xmcd
#
# Track frame offsets: 
#        150
#        10387
#        23307
#        40957
#        56120
#        64670
#        80075
#        93532
#        106477
#        117305
#        129135
#
# Disc length: 1987 seconds
#
# Revision: 16
# Processed by: cddbd v1.5.2PL0 Copyright (c) Steve Scherf et al.
# Submitted via: ExactAudioCopyFreeDBPlugin 1.0
#
DISCID=8a07c10b
DTITLE=The Doors - Waiting for the sun
DYEAR=1968
DGENRE=Blues
TTITLE0=Hello, I love you
TTITLE1=Love street
TTITLE2=Not to touch the earth
TTITLE3=Summer's almost gone
TTITLE4=Wintertime love
TTITLE5=The unknown soldier
TTITLE6=Spanish caravan
TTITLE7=My wild love
TTITLE8=We could be so good together
TTITLE9=Yes, the river knows
TTITLE10=Five to one
EXTD=
EXTT0=
EXTT1=
EXTT2=
EXTT3=
EXTT4=
EXTT5=
EXTT6=
EXTT7=
EXTT8=
EXTT9=
EXTT10=
PLAYORDER=
